1ST TIME ON NET WITH ORG HINDI DOLBY DIGITAL 5.1CH SOUND
SPIDERMAN 3 (2007) 1080p HINDI-ENG DD 5 1CH ORG BY - RAJPUT (Team-Gpsoft)


title: Spider-Man 3
Tagline: The battle within.
Release Title: SPIDERMAN 3 (2007) 1080p HINDI-ENG DD 5 1CH ORG BY - RAJPUT (Team-Gpsoft)
Original Name: Spider-Man 3


TmDb Url: http://www.themoviedb.org/movie/559
Imdb Url: http://www.imdb.com/title/tt0413300
Release Date: 03/05/2007
Genre: Fantasy | Drama | Action | Thriller | Science Fiction
Storyline: 
The seemingly invincible Spider-Man goes up against an all-new crop of villains
including the shape-shifting Sandman in the third installment of this
blockbusting comic book adventure series . While Spidey's superpowers
are altered by an alien organism, his alter ego, Peter Parker,
deals with nemesis Eddie Brock and gets caught up in a love triangle.


Cast: 
Tobey Maguire ... Spider-Man / Peter Parker
Kirsten Dunst ... Mary Jane Watson
J.K. Simmons ... J. Jonah Jameson
Rosemary Harris ... May Parker
James Cromwell ... Captain Stacey
Daniel Gillies ... John Jameson
Bryce Dallas Howard ... Gwen Stacey
Theresa Russell ... Mrs. Marko
Dylan Baker ... Dr. Curt Connors
Bill Nunn ... Joseph Robertson
Cliff Robertson ... Ben Parker
Bruce Campbell ... Maître d
Elizabeth Banks ... Miss Brant
Ted Raimi ... Hoffman
James Franco ... New Goblin / Harry Osborn
Thomas Haden Church ... Sandman / Flint Marko
Topher Grace ... Venom / Eddie Brock
Perla Haney-Jardine ... Penny Marko
Willem Dafoe ... Green Goblin / Norman Osborn
Cliff Robertson ... Ben Parker
Elya Baskin ... Mr. Ditkovitch
Mageina Tovah ... Ursula
John Paxton ... Houseman
Becky Ann Baker ... Mrs. Stacy
Stan Lee ... Man in Times Square
Michael Papajohn ... Dennis Carradine / Carjacker
Joe Manganiello ... Flash Thompson
Steve Valentine ... Photographer
Hal Fishman ... Anchorman
Lucy Gordon ... Jennifer Dugan


General
Format : Matroska
Format version : Version 2
File size : 4.83 GiB
Duration : 2h 19mn
Overall bit rate mode : Variable
Overall bit rate : 4 967 Kbps

Video
ID : 1
Format: AVC
Format/Info : Advanced Video Codec
Format profile : High@L5.1
Format settings, CABAC : Yes
Format settings, ReFrames : 3 frames
Muxing mode : Header stripping
Codec ID : V_MPEG4/ISO/AVC
Duration : 2h 19mn
Bit rate mode : Variable
Bit rate : 3 865 Kbps
Maximum bit rate : 300 Mbps
Width : 1 920 pixels
Height : 800 pixels
Display aspect ratio : 2.40:1
Frame rate : 23.976 fps
Color space : YUV
Chroma subsampling : 4:2:0
Bit depth : 8 bits
Scan type : Progressive
Bits/(Pixel*Frame) : 0.105
Stream size : 3.68 GiB (76%)
Language : English
Default : Yes
Forced : No

Audio #1
ID : 2
Format : AC-3
Format/Info : Audio Coding 3
Codec ID : A_AC3
Duration : 2h 19mn
Bit rate mode : Constant
Bit rate : 640 Kbps
Channel(s) : 6 channels
Channel positions : Front: L C R, Side: L R, LFE
Sampling rate : 48.0 KHz
Bit depth : 16 bits
Compression mode : Lossy
Stream size : 637 MiB (13%)
Title : DOLBY DIGITAL 5.1CH ORG BD BY - RAJPUT
Language : Hindi
Default : Yes
Forced : No

Audio #2
ID : 3
Format : AC-3
Format/Info : Audio Coding 3
Codec ID : A_AC3
Duration : 2h 19mn
Bit rate mode : Constant
Bit rate : 448 Kbps
Channel(s) : 6 channels
Channel positions : Front: L C R, Side: L R, LFE
Sampling rate : 48.0 KHz
Bit depth : 16 bits
Compression mode : Lossy
Stream size : 446 MiB (9%)
Title : DOLBY DIGITAL 5.1CH ORG BD BY - RAJPUT
Language : English
Default : No
Forced : No

Text #1
ID : 4
Format : PGS
Muxing mode : zlib
Codec ID : S_HDMV/PGS
Codec ID/Info : The same subtitle format used on BDs/HD-DVDs
Title : SUBTITLES
Language : Hindi
Default : Yes
Forced : No

Text #2
ID : 5
Format : PGS
Muxing mode : zlib
Codec ID : S_HDMV/PGS
Codec ID/Info : The same subtitle format used on BDs/HD-DVDs
Title : SUBTITLES
Language : English
Default : No
Forced : No


***********************************************************************************

JOIN US WITH


SEARCH IN( GPSOFT 1080p/720p HD-MOVIES )(HD-MOVIES 4 ALL) AND (Hiren Rajput)


PLEASE SAY THANKS IF U LIKE THIS POST TO ALIVE TORRENT AND SEED 24HR AFTER 100%
 
DOWNLOAD PLEASE



***********************************************************************************
